<mxfile host="65bd71144e">
    <diagram id="BE8zAv00XU0xNEcX1kVY" name="hld">
        <mxGraphModel dx="1461" dy="1101" grid="0" gridSize="10" guides="1" tooltips="1" connect="1" arrows="1" fold="1" page="0" pageScale="1" pageWidth="850" pageHeight="1100" background="#ffffff" math="0" shadow="0">
            <root>
                <mxCell id="0"/>
                <mxCell id="1" parent="0"/>
                <mxCell id="48" value="MyFunctionApp" style="whiteSpace=wrap;html=1;verticalAlign=bottom;labelPosition=center;verticalLabelPosition=top;align=center;labelBackgroundColor=none;labelBorderColor=none;textShadow=0;strokeColor=#6c8ebf;rounded=1;glass=0;sketch=1;curveFitting=1;jiggle=2;fillColor=#dae8fc;" vertex="1" parent="1">
                    <mxGeometry x="220" y="10" width="150" height="80" as="geometry"/>
                </mxCell>
                <mxCell id="47" value="MyMcpServerHttpApi" style="whiteSpace=wrap;html=1;verticalAlign=bottom;labelPosition=center;verticalLabelPosition=top;align=center;labelBackgroundColor=none;labelBorderColor=none;textShadow=0;strokeColor=#6c8ebf;rounded=1;glass=0;sketch=1;curveFitting=1;jiggle=2;fillColor=#dae8fc;" vertex="1" parent="1">
                    <mxGeometry x="41" y="410" width="150" height="130" as="geometry"/>
                </mxCell>
                <mxCell id="46" value="MyChatApp.Web" style="whiteSpace=wrap;html=1;verticalAlign=bottom;labelPosition=center;verticalLabelPosition=top;align=center;labelBackgroundColor=none;labelBorderColor=none;textShadow=0;strokeColor=#82b366;rounded=1;glass=0;sketch=1;curveFitting=1;jiggle=2;fillColor=#d5e8d4;" vertex="1" parent="1">
                    <mxGeometry x="40" y="10" width="150" height="300" as="geometry"/>
                </mxCell>
                <mxCell id="45" value="MyAdminApp.Web" style="whiteSpace=wrap;html=1;verticalAlign=bottom;labelPosition=center;verticalLabelPosition=top;align=center;labelBackgroundColor=none;labelBorderColor=none;textShadow=0;strokeColor=#6c8ebf;rounded=1;glass=0;sketch=1;curveFitting=1;jiggle=2;fillColor=#dae8fc;" vertex="1" parent="1">
                    <mxGeometry x="270" y="160" width="250" height="250" as="geometry"/>
                </mxCell>
                <mxCell id="33" style="edgeStyle=none;html=1;endArrow=blockThin;endFill=1;strokeColor=#FF8000;strokeWidth=2;" edge="1" parent="1" source="32" target="5">
                    <mxGeometry relative="1" as="geometry"/>
                </mxCell>
                <mxCell id="34" value="RAG data" style="edgeLabel;html=1;align=center;verticalAlign=middle;resizable=0;points=[];" vertex="1" connectable="0" parent="33">
                    <mxGeometry x="-0.0408" y="1" relative="1" as="geometry">
                        <mxPoint x="1" y="7" as="offset"/>
                    </mxGeometry>
                </mxCell>
                <mxCell id="31" style="edgeStyle=none;html=1;startArrow=blockThin;startFill=1;endArrow=blockThin;endFill=1;strokeWidth=2;strokeColor=#336699;dashed=1;" edge="1" parent="1" source="28" target="22">
                    <mxGeometry relative="1" as="geometry"/>
                </mxCell>
                <mxCell id="10" style="edgeStyle=none;html=1;entryX=0.516;entryY=0.986;entryDx=0;entryDy=0;entryPerimeter=0;endArrow=blockThin;endFill=1;strokeColor=#FF8000;strokeWidth=2;" edge="1" parent="1" source="5" target="8">
                    <mxGeometry relative="1" as="geometry"/>
                </mxCell>
                <mxCell id="25" value="Search Groups (GitLab)" style="edgeStyle=none;html=1;startArrow=block;startFill=1;endArrow=blockThin;endFill=1;strokeWidth=2;strokeColor=#336699;dashed=1;entryX=0.867;entryY=0.034;entryDx=0;entryDy=0;entryPerimeter=0;" edge="1" parent="1" target="22">
                    <mxGeometry x="-0.0163" y="50" relative="1" as="geometry">
                        <mxPoint x="140" y="284" as="sourcePoint"/>
                        <mxPoint x="140" y="410" as="targetPoint"/>
                        <mxPoint as="offset"/>
                    </mxGeometry>
                </mxCell>
                <mxCell id="2" value="" style="image;aspect=fixed;html=1;points=[];align=center;fontSize=12;image=img/lib/azure2/iot/Function_Apps.svg;" vertex="1" parent="1">
                    <mxGeometry x="260" y="26" width="68" height="60" as="geometry"/>
                </mxCell>
                <mxCell id="15" style="edgeStyle=none;html=1;endArrow=blockThin;endFill=1;strokeWidth=2;strokeColor=#CC6600;" edge="1" parent="1" source="3" target="2">
                    <mxGeometry relative="1" as="geometry">
                        <mxPoint x="384.9999999999998" y="56" as="targetPoint"/>
                    </mxGeometry>
                </mxCell>
                <mxCell id="18" value="&amp;nbsp;new PDF&amp;nbsp;" style="edgeLabel;html=1;align=center;verticalAlign=middle;resizable=0;points=[];" vertex="1" connectable="0" parent="15">
                    <mxGeometry x="-0.0332" y="-2" relative="1" as="geometry">
                        <mxPoint as="offset"/>
                    </mxGeometry>
                </mxCell>
                <mxCell id="3" value="" style="image;aspect=fixed;html=1;points=[];align=center;fontSize=12;image=img/lib/azure2/storage/Storage_Accounts.svg;" vertex="1" parent="1">
                    <mxGeometry x="410" y="30" width="65" height="52" as="geometry"/>
                </mxCell>
                <mxCell id="23" value="Who Is" style="edgeStyle=none;html=1;startArrow=block;startFill=1;endArrow=blockThin;endFill=1;strokeWidth=2;strokeColor=#336699;dashed=1;entryX=0.232;entryY=0.034;entryDx=0;entryDy=0;entryPerimeter=0;" edge="1" parent="1" target="22">
                    <mxGeometry x="-0.1429" y="-10" relative="1" as="geometry">
                        <mxPoint x="100" y="284" as="sourcePoint"/>
                        <mxPoint x="100" y="410.0000000000001" as="targetPoint"/>
                        <mxPoint as="offset"/>
                    </mxGeometry>
                </mxCell>
                <mxCell id="4" value="Chat AI Web" style="image;aspect=fixed;html=1;points=[];align=center;fontSize=12;image=img/lib/azure2/compute/App_Services.svg;" vertex="1" parent="1">
                    <mxGeometry x="84" y="220" width="64" height="64" as="geometry"/>
                </mxCell>
                <mxCell id="13" style="edgeStyle=orthogonalEdgeStyle;html=1;endArrow=blockThin;endFill=1;strokeColor=#FF8000;strokeWidth=2;" edge="1" parent="1" source="5" target="9">
                    <mxGeometry relative="1" as="geometry"/>
                </mxCell>
                <mxCell id="14" value="&amp;nbsp;Input&amp;nbsp;" style="edgeLabel;html=1;align=center;verticalAlign=middle;resizable=0;points=[];" vertex="1" connectable="0" parent="13">
                    <mxGeometry x="-0.3751" y="3" relative="1" as="geometry">
                        <mxPoint as="offset"/>
                    </mxGeometry>
                </mxCell>
                <mxCell id="5" value="Admin Web" style="image;aspect=fixed;html=1;points=[];align=center;fontSize=12;image=img/lib/azure2/compute/App_Services.svg;" vertex="1" parent="1">
                    <mxGeometry x="291" y="320" width="64" height="64" as="geometry"/>
                </mxCell>
                <mxCell id="7" value="" style="image;aspect=fixed;html=1;points=[];align=center;fontSize=12;image=img/lib/azure2/ai_machine_learning/Azure_OpenAI.svg;" vertex="1" parent="1">
                    <mxGeometry x="80" y="30" width="68" height="68" as="geometry"/>
                </mxCell>
                <mxCell id="8" value="PDF" style="image;aspect=fixed;html=1;points=[];align=center;fontSize=12;image=img/lib/azure2/general/File.svg;" vertex="1" parent="1">
                    <mxGeometry x="295" y="190" width="56.00000000000001" height="69" as="geometry"/>
                </mxCell>
                <mxCell id="12" style="edgeStyle=none;html=1;strokeColor=#FF8000;strokeWidth=2;" edge="1" parent="1" source="9" target="8">
                    <mxGeometry relative="1" as="geometry"/>
                </mxCell>
                <mxCell id="27" value="&amp;nbsp;Convert&amp;nbsp;" style="edgeLabel;html=1;align=center;verticalAlign=middle;resizable=0;points=[];" vertex="1" connectable="0" parent="12">
                    <mxGeometry x="0.0375" y="-1" relative="1" as="geometry">
                        <mxPoint as="offset"/>
                    </mxGeometry>
                </mxCell>
                <mxCell id="9" value="Markdown" style="image;aspect=fixed;html=1;points=[];align=center;fontSize=12;image=img/lib/azure2/general/File.svg;" vertex="1" parent="1">
                    <mxGeometry x="450" y="190" width="56.00000000000001" height="69" as="geometry"/>
                </mxCell>
                <mxCell id="11" value="&amp;nbsp;Upload&amp;nbsp;" style="edgeStyle=elbowEdgeStyle;html=1;entryX=0.52;entryY=1.001;entryDx=0;entryDy=0;entryPerimeter=0;elbow=vertical;endArrow=blockThin;endFill=1;strokeColor=#FF8000;strokeWidth=2;" edge="1" parent="1" source="8" target="3">
                    <mxGeometry relative="1" as="geometry"/>
                </mxCell>
                <mxCell id="16" style="edgeStyle=elbowEdgeStyle;html=1;entryX=0.959;entryY=0.56;entryDx=0;entryDy=0;entryPerimeter=0;endArrow=blockThin;endFill=1;strokeColor=#FF8000;strokeWidth=2;" edge="1" parent="1" source="2" target="4">
                    <mxGeometry relative="1" as="geometry"/>
                </mxCell>
                <mxCell id="17" value="queue" style="edgeLabel;html=1;align=center;verticalAlign=middle;resizable=0;points=[];" vertex="1" connectable="0" parent="16">
                    <mxGeometry x="-0.0472" y="2" relative="1" as="geometry">
                        <mxPoint as="offset"/>
                    </mxGeometry>
                </mxCell>
                <mxCell id="19" value="Ingest" style="edgeStyle=none;html=1;entryX=0.611;entryY=0.984;entryDx=0;entryDy=0;entryPerimeter=0;endArrow=blockThin;endFill=1;strokeColor=#FF8000;strokeWidth=2;" edge="1" parent="1">
                    <mxGeometry relative="1" as="geometry">
                        <mxPoint x="140.35673682038595" y="220" as="sourcePoint"/>
                        <mxPoint x="139.998" y="96.91199999999992" as="targetPoint"/>
                    </mxGeometry>
                </mxCell>
                <mxCell id="20" style="edgeStyle=none;html=1;entryX=0.39;entryY=-0.052;entryDx=0;entryDy=0;entryPerimeter=0;endArrow=blockThin;endFill=1;strokeColor=#66CC00;strokeWidth=2;" edge="1" parent="1">
                    <mxGeometry relative="1" as="geometry">
                        <mxPoint x="90.00379165793336" y="101.33" as="sourcePoint"/>
                        <mxPoint x="90.75000000000003" y="220.00200000000015" as="targetPoint"/>
                    </mxGeometry>
                </mxCell>
                <mxCell id="21" value="Response" style="edgeLabel;html=1;align=center;verticalAlign=middle;resizable=0;points=[];" vertex="1" connectable="0" parent="20">
                    <mxGeometry x="-0.172" y="1" relative="1" as="geometry">
                        <mxPoint as="offset"/>
                    </mxGeometry>
                </mxCell>
                <mxCell id="22" value="MCP Server" style="image;aspect=fixed;html=1;points=[];align=center;fontSize=12;image=img/lib/azure2/compute/App_Services.svg;" vertex="1" parent="1">
                    <mxGeometry x="84" y="436" width="64" height="64" as="geometry"/>
                </mxCell>
                <mxCell id="28" value="MCP Inspector" style="image;aspect=fixed;html=1;points=[];align=center;fontSize=12;image=img/lib/azure2/compute/App_Services.svg;" vertex="1" parent="1">
                    <mxGeometry x="82" y="600" width="64" height="64" as="geometry"/>
                </mxCell>
                <mxCell id="30" value="&amp;nbsp;Debug/Test&amp;nbsp;" style="edgeStyle=none;html=1;endArrow=blockThin;endFill=1;" edge="1" parent="1" source="29" target="28">
                    <mxGeometry relative="1" as="geometry"/>
                </mxCell>
                <mxCell id="29" value="Engineer" style="verticalLabelPosition=bottom;html=1;verticalAlign=top;align=center;strokeColor=none;fillColor=#336699;shape=mxgraph.azure.user;" vertex="1" parent="1">
                    <mxGeometry x="-47" y="607" width="47.5" height="50" as="geometry"/>
                </mxCell>
                <mxCell id="32" value="Admin" style="verticalLabelPosition=bottom;html=1;verticalAlign=top;align=center;strokeColor=none;fillColor=#CC6600;shape=mxgraph.azure.user;" vertex="1" parent="1">
                    <mxGeometry x="299.25" y="460" width="47.5" height="50" as="geometry"/>
                </mxCell>
                <mxCell id="36" value="&amp;nbsp;Interact with AI Model&amp;nbsp;" style="edgeStyle=none;html=1;endArrow=blockThin;endFill=1;strokeColor=#66CC00;strokeWidth=2;" edge="1" parent="1">
                    <mxGeometry relative="1" as="geometry">
                        <mxPoint x="-72.5" y="252" as="sourcePoint"/>
                        <mxPoint x="84.00000000000023" y="252.0000000000001" as="targetPoint"/>
                    </mxGeometry>
                </mxCell>
                <mxCell id="35" value="User" style="verticalLabelPosition=bottom;html=1;verticalAlign=top;align=center;strokeColor=none;fillColor=#66CC00;shape=mxgraph.azure.user;" vertex="1" parent="1">
                    <mxGeometry x="-120" y="227" width="47.5" height="50" as="geometry"/>
                </mxCell>
                <mxCell id="37" value="" style="edgeStyle=none;orthogonalLoop=1;jettySize=auto;html=1;strokeColor=#FF8000;strokeWidth=2;endArrow=blockThin;endFill=1;" edge="1" parent="1">
                    <mxGeometry width="100" relative="1" as="geometry">
                        <mxPoint x="-160" y="400" as="sourcePoint"/>
                        <mxPoint x="-20" y="400" as="targetPoint"/>
                        <Array as="points"/>
                    </mxGeometry>
                </mxCell>
                <mxCell id="38" value="&amp;nbsp;RAG&amp;nbsp;" style="edgeLabel;html=1;align=center;verticalAlign=middle;resizable=0;points=[];" vertex="1" connectable="0" parent="37">
                    <mxGeometry x="-0.1283" y="1" relative="1" as="geometry">
                        <mxPoint as="offset"/>
                    </mxGeometry>
                </mxCell>
                <mxCell id="39" value="" style="edgeStyle=none;orthogonalLoop=1;jettySize=auto;html=1;strokeColor=#336699;strokeWidth=2;endArrow=blockThin;endFill=1;dashed=1;" edge="1" parent="1">
                    <mxGeometry width="100" relative="1" as="geometry">
                        <mxPoint x="-160" y="420" as="sourcePoint"/>
                        <mxPoint x="-20" y="420" as="targetPoint"/>
                        <Array as="points"/>
                    </mxGeometry>
                </mxCell>
                <mxCell id="40" value="&lt;span style=&quot;color: rgb(0, 0, 0);&quot;&gt;&amp;nbsp;Model Extension&amp;nbsp;&lt;/span&gt;" style="edgeLabel;html=1;align=center;verticalAlign=middle;resizable=0;points=[];" vertex="1" connectable="0" parent="39">
                    <mxGeometry x="-0.1283" y="1" relative="1" as="geometry">
                        <mxPoint x="3" y="1" as="offset"/>
                    </mxGeometry>
                </mxCell>
                <mxCell id="43" value="" style="edgeStyle=none;orthogonalLoop=1;jettySize=auto;html=1;strokeColor=#66CC00;strokeWidth=2;endArrow=blockThin;endFill=1;" edge="1" parent="1">
                    <mxGeometry width="100" relative="1" as="geometry">
                        <mxPoint x="-160" y="380" as="sourcePoint"/>
                        <mxPoint x="-20" y="380" as="targetPoint"/>
                        <Array as="points"/>
                    </mxGeometry>
                </mxCell>
                <mxCell id="44" value="&amp;nbsp;Model Interaction&amp;nbsp;" style="edgeLabel;html=1;align=center;verticalAlign=middle;resizable=0;points=[];" vertex="1" connectable="0" parent="43">
                    <mxGeometry x="-0.1283" y="1" relative="1" as="geometry">
                        <mxPoint as="offset"/>
                    </mxGeometry>
                </mxCell>
                <mxCell id="49" value="Legend" style="text;html=1;align=center;verticalAlign=middle;resizable=0;points=[];autosize=1;strokeColor=none;fillColor=none;fontStyle=1" vertex="1" parent="1">
                    <mxGeometry x="-125.25" y="339" width="58" height="26" as="geometry"/>
                </mxCell>
            </root>
        </mxGraphModel>
    </diagram>
</mxfile>